<svg width="146" height="140" viewBox="0 0 146 140" fill="none" xmlns="http://www.w3.org/2000/svg">
<g id="Icons" style="mix-blend-mode:plus-lighter">
<g id="Talk">
<g id="Group">
<path id="Vector" d="M1.86328 138.858L5.97327 97.9429C6.3288 94.3947 8.15626 91.1664 11.0076 89.0261C13.212 87.3693 15.8927 86.4805 18.6517 86.4805H23.0461C28.6493 86.4805 33.6624 89.9505 35.632 95.1911L42.2023 112.662C42.7854 114.219 44.2786 115.25 45.9425 115.25H57.4406C61.3799 115.25 64.5726 118.443 64.5726 122.382C64.5726 126.322 61.3799 129.514 57.4406 129.514H39.87C36.7342 129.514 33.8401 127.808 32.3255 125.063L25.4708 112.669" stroke="#777777" stroke-width="0.711071" stroke-linecap="round" stroke-linejoin="round"/>
<path id="Vector_2" d="M34.8283 127.879L34.5723 138.858" stroke="#777777" stroke-width="0.711071" stroke-linecap="round" stroke-linejoin="round"/>
<path id="Vector_3" d="M37.2949 70.4339C38.9637 63.363 34.5845 56.278 27.5136 54.6091C20.4427 52.9402 13.3577 57.3194 11.6888 64.3903C10.0199 71.4612 14.3991 78.5463 21.47 80.2151C28.5409 81.884 35.626 77.5048 37.2949 70.4339Z" stroke="#777777" stroke-width="0.711071" stroke-linecap="round" stroke-linejoin="round"/>
</g>
<g id="Group_2">
<path id="Vector_4" d="M144.077 138.858L139.967 97.9429C139.612 94.3947 137.785 91.1664 134.933 89.0261C132.729 87.3693 130.048 86.4805 127.289 86.4805H122.895C117.291 86.4805 112.278 89.9505 110.309 95.1911L103.738 112.662C103.155 114.219 101.662 115.25 99.9982 115.25H88.5002C84.5609 115.25 81.3682 118.443 81.3682 122.382C81.3682 126.322 84.5609 129.514 88.5002 129.514H106.071C109.207 129.514 112.101 127.808 113.615 125.063L120.47 112.669" stroke="#777777" stroke-width="0.711071" stroke-linecap="round" stroke-linejoin="round"/>
<path id="Vector_5" d="M111.368 138.858L111.112 127.879" stroke="#777777" stroke-width="0.711071" stroke-linecap="round" stroke-linejoin="round"/>
<path id="Vector_6" d="M124.472 80.2288C131.543 78.5599 135.922 71.4749 134.253 64.404C132.584 57.3331 125.499 52.9539 118.428 54.6227C111.357 56.2916 106.978 63.3766 108.647 70.4476C110.316 77.5185 117.401 81.8977 124.472 80.2288Z" stroke="#777777" stroke-width="0.711071" stroke-linecap="round" stroke-linejoin="round"/>
</g>
<g id="Group_3">
<path id="Vector_7" d="M70.3457 52.1143H80.6562L87.3687 61.0951C89.3882 63.7972 93.6902 62.368 93.6902 58.9904V52.1072H101.661C104.861 52.1072 107.456 48.8505 107.456 44.8401V16.5039" stroke="#777777" stroke-width="0.711071" stroke-linecap="round" stroke-linejoin="round"/>
<path id="Vector_8" d="M98.2345 8.6895V37.0328C98.2345 41.0432 95.6391 44.2999 92.4393 44.2999H63.8969L57.1844 53.2807C55.165 55.9828 50.863 54.5536 50.863 51.176V44.2928H42.8919C39.6921 44.2928 37.0967 41.0361 37.0967 37.0257V8.6895C37.0967 4.67907 39.6921 1.42236 42.8919 1.42236H92.4393C95.6391 1.42236 98.2345 4.67907 98.2345 8.6895Z" stroke="#777777" stroke-width="0.711071" stroke-linecap="round" stroke-linejoin="round"/>
</g>
</g>
</g>
</svg>
