<svg width="175" height="144" viewBox="0 0 175 144" fill="none" xmlns="http://www.w3.org/2000/svg">
<g id="Icons" style="mix-blend-mode:plus-lighter" clip-path="url(#clip0_250_403)">
<path id="Vector" d="M102.5 142.16C157.728 142.16 202.5 119.774 202.5 92.1602C202.5 64.5459 157.728 42.1602 102.5 42.1602C47.2715 42.1602 2.5 64.5459 2.5 92.1602C2.5 119.774 47.2715 142.16 102.5 142.16Z" stroke="#777777" stroke-linecap="round" stroke-linejoin="round"/>
<path id="Vector_2" d="M152.495 178.766C176.409 164.959 173.41 114.992 145.796 67.1631C118.182 19.3338 76.4093 -8.24657 52.4946 5.56055C28.58 19.3677 31.5791 69.3338 59.1934 117.163C86.8076 164.992 128.58 192.573 152.495 178.766Z" stroke="#777777" stroke-linecap="round" stroke-linejoin="round"/>
<path id="Vector_3" d="M145.804 117.166C173.418 69.3363 176.417 19.3701 152.502 5.56299C128.588 -8.24413 86.8154 19.3363 59.2012 67.1655C31.5869 114.995 28.5878 164.961 52.5024 178.768C76.4171 192.575 118.189 164.995 145.804 117.166Z" stroke="#777777" stroke-linecap="round" stroke-linejoin="round"/>
<path id="Vector_4" d="M127.94 73.3199C130.85 76.2299 132.31 80.0499 132.31 83.8699C132.31 87.6899 130.85 91.5099 127.94 94.4199L102.45 119.91L76.9604 94.4199C71.1304 88.5899 71.1304 79.1399 76.9604 73.3099C79.8704 70.3999 83.6904 68.9399 87.5204 68.9399C91.3504 68.9399 95.1604 70.3999 98.0704 73.3099L102.46 77.6999L106.84 73.3199C112.67 67.4899 122.12 67.4899 127.95 73.3199H127.94Z" stroke="#777777" stroke-linecap="round" stroke-linejoin="round"/>
</g>
<defs>
<clipPath id="clip0_250_403">
<rect width="204" height="184.32" fill="white" transform="translate(0.5)"/>
</clipPath>
</defs>
</svg>
